<svg width="479" height="353" viewBox="0 0 479 353" fill="none" xmlns="http://www.w3.org/2000/svg">
<path fill-rule="evenodd" clip-rule="evenodd" d="M0 18C0 8.33502 7.83502 0.5 17.5 0.5H461.5C471.165 0.5 479 8.33502 479 18V335C479 344.665 471.165 352.5 461.5 352.5H244C234.335 352.5 226.5 344.665 226.5 335C226.5 325.335 234.335 317.5 244 317.5H444V35.5H35V113.5C35 123.165 27.165 131 17.5 131C7.83502 131 0 123.165 0 113.5V18ZM0 175.5C0 165.835 7.83502 158 17.5 158C107.591 158 192.5 224.295 192.5 335C192.5 344.665 184.665 352.5 175 352.5C165.335 352.5 157.5 344.665 157.5 335C157.5 245.705 90.4088 193 17.5 193C7.83502 193 0 185.165 0 175.5ZM0 238C0 228.335 7.83502 220.5 17.5 220.5C51.5384 220.5 79.8923 232.499 99.6413 253.785C119.229 274.897 129 303.668 129 335C129 344.665 121.165 352.5 111.5 352.5C101.835 352.5 94 344.665 94 335C94 310.832 86.5214 291.103 73.9837 277.59C61.6077 264.251 42.9616 255.5 17.5 255.5C7.83502 255.5 0 247.665 0 238ZM0 301.5C0 291.835 7.83502 284 17.5 284C36.9241 284 51.5433 290.756 59.3905 304.52C65.5642 315.35 65.5226 327.873 65.5022 334.054C65.501 334.389 65.5 334.704 65.5 335C65.5 344.665 57.665 352.5 48 352.5C38.335 352.5 30.5 344.665 30.5 335C30.5 331.475 30.4785 328.774 30.1614 326.263C29.8519 323.813 29.3574 322.509 28.9845 321.855C28.7624 321.465 28.4853 321.063 27.479 320.573C26.2234 319.963 23.3037 319 17.5 319C7.83502 319 0 311.165 0 301.5Z" fill="#20C487"/>
</svg>
