<svg width="479" height="479" viewBox="0 0 479 479" fill="none" xmlns="http://www.w3.org/2000/svg">
<path fill-rule="evenodd" clip-rule="evenodd" d="M0 81C0 71.335 7.83502 63.5 17.5 63.5H461.5C471.165 63.5 479 71.335 479 81V398C479 407.665 471.165 415.5 461.5 415.5H244C234.335 415.5 226.5 407.665 226.5 398C226.5 388.335 234.335 380.5 244 380.5H444V98.5H35V176.5C35 186.165 27.165 194 17.5 194C7.83502 194 0 186.165 0 176.5V81ZM0 238.5C0 228.835 7.83502 221 17.5 221C107.591 221 192.5 287.295 192.5 398C192.5 407.665 184.665 415.5 175 415.5C165.335 415.5 157.5 407.665 157.5 398C157.5 308.705 90.4088 256 17.5 256C7.83502 256 0 248.165 0 238.5ZM0 301C0 291.335 7.83502 283.5 17.5 283.5C51.5384 283.5 79.8923 295.499 99.6413 316.785C119.229 337.897 129 366.668 129 398C129 407.665 121.165 415.5 111.5 415.5C101.835 415.5 94 407.665 94 398C94 373.832 86.5214 354.103 73.9837 340.59C61.6077 327.251 42.9616 318.5 17.5 318.5C7.83502 318.5 0 310.665 0 301ZM0 364.5C0 354.835 7.83502 347 17.5 347C36.9241 347 51.5433 353.756 59.3905 367.52C65.5642 378.35 65.5226 390.873 65.5022 397.054C65.501 397.389 65.5 397.704 65.5 398C65.5 407.665 57.665 415.5 48 415.5C38.335 415.5 30.5 407.665 30.5 398C30.5 394.475 30.4785 391.774 30.1614 389.263C29.8519 386.813 29.3574 385.509 28.9845 384.855C28.7624 384.465 28.4853 384.063 27.479 383.573C26.2234 382.963 23.3037 382 17.5 382C7.83502 382 0 374.165 0 364.5Z" fill="#20C487"/>
</svg>
